/* XPM */
static char *result[] = {
/* columns rows colors chars-per-pixel */
"64 64 4 1 ",
"  c #FEFA00",
". c #FEFB00",
"X c #FFFB00",
"o c None",
/* pixels */
"oooooooooooooooooooooooooooooooooooooooooooooooooooooooooooooooo",
"oooooooooooooooooooooooooooooooooooooooooooooooooooooooooooooooo",
"oooooooooooooooooooooooooooooooooooooooooooooooooooooooooooooooo",
"oooooooooooooooooooooooooooooooooooooooooooooooooooooooooooooooo",
"oooooooooooooooooooooooooooooooooooooooooooooooooooooooooooooooo",
"oooooooooooooooooooooooooooooooooooooooooooooooooooooooooooooooo",
"oooooooooooooooooooooooooooooooooooooooooooooooooooooooooooooooo",
"oooooooooooooooooooooooooooooooooooooooooooooooooooooooooooooooo",
"oooooooooooooooooooooooooooooooooooooooooooooooooooooooooooooooo",
"oooooooooooooooooooooooooooooooooooooooooooooooooooooooooooooooo",
"oooooooooooooooooooooooooo     .XXXXXXXXoooooooooooooooooooooooo",
"oooooooooooooooooooooooooo ..  .XXXXXXXXoooooooooooooooooooooooo",
"oooooooooooooooooooooo ..  ..  .XXXXXXXXXXXXoooooooooooooooooooo",
"oooooooooooooooooooooo         .XXXXXXXXXXXXoooooooooooooooooooo",
"oooooooooooooooooooo           .XXXXXXXXXXXXXXoooooooooooooooooo",
"oooooooooooooooooooo           .XXXXXXXXXXXXXXoooooooooooooooooo",
"oooooooooooooooooo              ................oooooooooooooooo",
"oooooooooooooooooo              ................oooooooooooooooo",
"oooooooooooooooo                ..................oooooooooooooo",
"oooooooooooooooo                ..................oooooooooooooo",
"oooooooooooooooo                ..................oooooooooooooo",
"oooooooooooooooo                ..................oooooooooooooo",
"oooooooooooooo                  ....................oooooooooooo",
"oooooooooooooo                  ....................oooooooooooo",
"oooooooooooooo                  ....................oooooooooooo",
"oooooooooooooo                  ....................oooooooooooo",
"oooooooooooooo                  ....................oooooooooooo",
"oooooooooooooo                  ....................oooooooooooo",
"oooooooooooooo                  ....................oooooooooooo",
"oooooooooooooo                  ....................oooooooooooo",
"oooooooooooooo                  ....................oooooooooooo",
"oooooooooooooo..                ....................oooooooooooo",
"ooooooooooooooXX.................XXXXXXXXXXXXXXXXXXXoooooooooooo",
"ooooooooooooooXX................XXXXXXXXXXXXXXXXXXXXoooooooooooo",
"ooooooooooooooXX................XXXXXXXXXXXXXXXXXXXXoooooooooooo",
"ooooooooooooooXX................XXXXXXXXXXXXXXXXXXXXoooooooooooo",
"oooooooooooooooo................XXXXXXXXXXXXXXXXXXoooooooooooooo",
"oooooooooooooooo................XXXXXXXXXXXXXXXXXXoooooooooooooo",
"oooooooooooooooo................XXXXXXXXXXXXXXXXXXoooooooooooooo",
"oooooooooooooooo................XXXXXXXXXXXXXXXXXXoooooooooooooo",
"oooooooooooooooooo..............XXXXXXXXXXXXXXXXoooooooooooooooo",
"oooooooooooooooooo..............XXXXXXXXXXXXXXXXoooooooooooooooo",
"oooooooooooooooooooo............XXXXXXXXXXXXXXoooooooooooooooooo",
"oooooooooooooooooooo............XXXXXXXXXXXXXXoooooooooooooooooo",
"oooooooooooooooooooooo..........XXXXXXXXXXXXoooooooooooooooooooo",
"oooooooooooooooooooooo..........XXXXXXXXXXXXoooooooooooooooooooo",
"oooooooooooooooooooooooooo......XXXXXXXXoooooooooooooooooooooooo",
"oooooooooooooooooooooooooo......XXXXXXXXoooooooooooooooooooooooo",
"oooooooooooooooooooooooooooooooooooooooooooooooooooooooooooooooo",
"oooooooooooooooooooooooooooooooooooooooooooooooooooooooooooooooo",
"oooooooooooooooooooooooooooooooooooooooooooooooooooooooooooooooo",
"oooooooooooooooooooooooooooooooooooooooooooooooooooooooooooooooo",
"oooooooooooooooooooooooooooooooooooooooooooooooooooooooooooooooo",
"oooooooooooooooooooooooooooooooooooooooooooooooooooooooooooooooo",
"oooooooooooooooooooooooooooooooooooooooooooooooooooooooooooooooo",
"oooooooooooooooooooooooooooooooooooooooooooooooooooooooooooooooo",
"oooooooooooooooooooooooooooooooooooooooooooooooooooooooooooooooo",
"oooooooooooooooooooooooooooooooooooooooooooooooooooooooooooooooo",
"oooooooooooooooooooooooooooooooooooooooooooooooooooooooooooooooo",
"oooooooooooooooooooooooooooooooooooooooooooooooooooooooooooooooo",
"oooooooooooooooooooooooooooooooooooooooooooooooooooooooooooooooo",
"oooooooooooooooooooooooooooooooooooooooooooooooooooooooooooooooo",
"oooooooooooooooooooooooooooooooooooooooooooooooooooooooooooooooo",
"oooooooooooooooooooooooooooooooooooooooooooooooooooooooooooooooo"
};
