/* XPM */
static char *result[] = {
/* columns rows colors chars-per-pixel */
"64 64 94 2 ",
"   c #010101",
".  c #0B0602",
"X  c #0C0B0B",
"o  c #140B04",
"O  c #1A0E05",
"+  c #140F0B",
"@  c #12100F",
"#  c #0F1011",
"$  c #131313",
"%  c #181614",
"&  c #1D1D1D",
"*  c #261305",
"=  c #2C1505",
"-  c #2D1C0E",
";  c #361A07",
":  c #381A05",
">  c #331C0A",
",  c #3E1F08",
"<  c #36210F",
"1  c #3F200A",
"2  c #26221F",
"3  c #2D221B",
"4  c #3A2515",
"5  c #1D1F20",
"6  c #1F2020",
"7  c #222222",
"8  c #2C2C2C",
"9  c #352D27",
"0  c #3E352B",
"q  c #2D2F30",
"w  c #2F3031",
"e  c #333333",
"r  c #3D3834",
"t  c #3B3B3C",
"y  c #401F08",
"u  c #472207",
"i  c #44240C",
"p  c #4A2409",
"a  c #4D280C",
"s  c #53280A",
"d  c #5E2E0B",
"f  c #432711",
"g  c #452B15",
"h  c #4B2C13",
"j  c #472F19",
"k  c #48311B",
"l  c #5C3010",
"z  c #5E3B1D",
"x  c #602F0C",
"c  c #61300D",
"v  c #6A350E",
"b  c #73390F",
"n  c #623412",
"m  c #663B19",
"M  c #7B3E12",
"N  c #4C3926",
"B  c #553C23",
"V  c #7D4013",
"C  c #674526",
"Z  c #6C4928",
"A  c #764A24",
"S  c #744C28",
"D  c #3F3F40",
"F  c #424242",
"G  c #474848",
"H  c #4A4A4B",
"J  c #545454",
"K  c #5B5B5B",
"L  c #636363",
"P  c #6B6B6B",
"I  c #757677",
"U  c #803F11",
"Y  c #824012",
"T  c #8B4513",
"R  c #8E4815",
"E  c #8F4D1B",
"W  c #924E1C",
"Q  c #834F25",
"!  c #835127",
"~  c #8B582C",
"^  c #945726",
"/  c #965827",
"(  c #985A27",
")  c #965D2D",
"_  c #9A5F2E",
"`  c #8A5E35",
"'  c #9C602E",
"]  c #906237",
"[  c #9A6332",
"{  c #9D6837",
"}  c #9E6A3A",
"|  c #A06532",
" . c #A26E3D",
".. c None",
/* pixels */
"................................................................................................................................",
"........................................................              ..........................................................",
"......................................................8 # $ w w 8 X 5 & ........................................................",
"..............................................  . & 7 J t e J L H 7 J F 5 %   ..................................................",
"..........................................# @ # 6 J P P P t 8 G 7 J P L L F % $ $ ..............................................",
"........................................X G L L H 6 J L L K D % J L L L F 7 K K K 8 . ..........................................",
"......................................X G L P P P H & $ % % X . $ % $ $ 8 K P P P K e   ........................................",
"....................................  . K P P P K 5 . N m d d n Z l d * X w P P P t e e   ......................................",
"..................................& e t w K H q N s s | ( T R W  .W T v h N e w e e J K e X ....................................",
"..................................& P L w t 0 < i U U  .( T T R  .E T T ( ` ; = . F P P J X ....................................",
"................................@ e L P J 3 C [ U U R | ( U T W { E T T ^ { R Y ; r K P J X ....................................",
"..............................  e L P L % d _ [ W U U | ( T R R  .E T T ^ { R T T > e L H $   ..................................",
"..............................  8 P P K % x ' ' U U W | ( T U W } E T T ^ { R T T ; e H 5 H $ ..................................",
"..............................  X e J 2 x U _ ' W R R | ( R R W } E T T ^ { T T T ! N 8 J L $ ..................................",
"..............................8 F D 7 o b U ' ' R R U  .( U R W  .E T T ^ { T T T { B 5 P L H % ................................",
"............................  F P H . s U U ' | R U W | ( R U W } E T T ^ { R T T [ S 4 F L P & ................................",
"............................  t P H O Y T T _ [ R U W | ( U U W { E T T ^ { T T T [ _ x $ L P 5 ................................",
"............................  F P H O Y T T _ [ R U R | ( R R W } E T T ^ { R T T [ _ x $ L L 5 ................................",
"............................  t L F O V T T _ [ R R R  .( U R W } W T T ^ { T T T [ _ x $ K K & ................................",
"............................  X % # O Y T T _ [ U R R | ( U U W } E T T ^ { E T T [ _ x   $ $ X ................................",
"............................  8 G w O V T T _ ' U R R | ( T U W  .E T T ^ { T T T [ ' d X F G % ................................",
"............................  F P G O Y T T ) [ R R R | ( T T W  .E T T ^ { T T T [ _ d $ L P & ................................",
"............................  F P H O Y T T _ [ R U R  ./ U T W } E T Y ^ { T T R [ ' d $ L P 5 ................................",
"............................  t P H O Y T T _ [ R U R | ( U U W } W T T ( { T b v A A u % K P 6 ................................",
"............................  t L N $ V T T _ [ T T T { ^ U T W  .E T T ^ { M o % X + @ $ J K % ................................",
"............................  X $ X O Y T T _ ' T T T { ^ T T W } E T T ^ { M @ I e G P   $ # X ................................",
"............................  e J e O U T T _ [ T T R } / T T E } W R T / { M o 7 $ % & # G H % ................................",
"............................  F P H O U T T _ [ T T T { / T U W } W T T / { Y d s z z : % L P 5 ................................",
"............................  t P H O Y T T _ [ T T T } ~ T T W { E T T / { T T T [ [ x % K P & ................................",
"............................  F P H O U T T _ [ T T T { ^ T U E } E T T ^ { R T T [ _ d $ L P 5 ................................",
"............................  e K D o U T T _ [ T T R { ^ T T E } W T T / { R T T [ _ d $ H J & ................................",
"............................  X $ X O M T T _ [ T T R } ^ T T E } E T T ^ { T T T [ [ d . $ X X ................................",
"............................  e K D O U U R ) [ U U W | ( U U W } W T T ^ { R T T [ ' d # J J % ................................",
"............................  F P H O U R y - - y y U  .( R R W } W T T ^ { T T T [ ) d $ L P 5 ................................",
"............................  t P G O U R x O . o s U | ( U R W  .E T T ^ } T T T [ ' d $ L L 5 ................................",
"............................  F P H * U U v f 4 y x U | ( R U W } E T T ^ } T T T [ ' d $ L P & ................................",
"............................  w J e O U U ; C | v o M | ( U U W } E T T ^ { T T T [ ' d # H J % ................................",
"............................  X $ X O U U : B ~ x * M | ( R R W } E T T ^ } T T T [ ' d . # #   ................................",
"............................  t L D O U R U i + = M R } ( U U E } E T T ^ { T T T [ ' d # J J & ................................",
"............................  F P H O U R U Q S b R U } ( U R W } E T T ^ } R T T [ ' d $ L P 5 ................................",
"............................  t P H O U R U | | T T T } ^ U R W } E R T ^ { R T T [ ' d $ L P & ................................",
"............................  F P H O U R T _ [ T T T } / T U W } E T T ^ { R T T [ ' d % L P & ................................",
"............................  8 H e O U T T _ _ T T R { ^ T U W } E T T ^ { R T Y [ ' d # F G $ ................................",
"............................  X % X o U T T _ [ T T R { ^ T R W } E T T ~ } T T R [ ' d   $ $ . ................................",
"............................  t L F O U T T _ [ T T T } ( T T W } E T T ^ { T T T [ ' d # J K & ................................",
"............................  F P H O U T T _ _ T T R { ( T U W } E T T ^ { R T T [ ' d $ L P 5 ................................",
"............................  D P H O U T T _ _ T T R | / U U W  .E R T ^ { T T T [ ' d $ L L 5 ................................",
"............................  G P H O U T T [ [ T T R | ( T T W } E T T ^ { R T T [ ' d % L P 5 ................................",
"............................  8 F 8 o Y R T _ [ T T T } ^ T U W { E T T ^ { T T T { ' d X D D $ ................................",
"............................  X % $ O Y T T _ [ T T T } ^ T T W } E T T ^ { T b v A A u   % %   ................................",
"............................  t P F O Y T T ' [ T T T } ^ T T E } E T T ^ { M o $ + # $ $ K L & ................................",
"............................  F P G O Y T T ) [ T T T } ^ T U E } E T T ( { M + I e G P % L P & ................................",
"............................  D P H O Y T T ) [ T T T } ~ T T E  .E T T ^  .M o 7 $ % & $ L P & ................................",
"............................  F P H O Y T T _ [ T T T { ^ T T E  .E T T ^ { Y d s z z ; $ L P & ................................",
"............................  7 t 7 O Y T T _ [ T T T { ^ T T E { E T T / { R R T [ ' c X e e X ................................",
"............................  $ 5 $ O Y T T _ [ T T R } ^ T T E } E T T / { T T T [ _ x . & 7 X ................................",
"............................  t P G O Y T T ) [ T T T { ^ T T E } W T T ^ | R R T [ ' d $ L P & ................................",
"............................  F P H O Y T T ' [ T T E { ^ T T E } W T T ^ [ R T T [ ' x $ L L 2 ................................",
"............................  F P H O Y T T ' [ T T T { ^ T T E  .W T T / { R T T [ _ d $ L L & ................................",
"............................  F P H O Y T T ' [ T T T { ^ T T E  .Q T T / { R T T [ _ d $ L P & ................................",
"............................  & e & . : , , g g y , , j f , , i j i , , f j 1 , , g g = X 8 q # ................................",
"..............................                                                                  ................................",
"................................................................................................................................",
"................................................................................................................................"
};
