/* XPM */
static char *b62027f955e747b7a48d650276883499InBNMI806SaR2BlY[] = {
/* columns rows colors chars-per-pixel */
"64 64 211 2 ",
"   c #5B1F07",
".  c #511E0B",
"X  c #4F1F11",
"o  c #531E15",
"O  c #55210E",
"+  c #5C240E",
"@  c #4F2414",
"#  c #46211B",
"$  c #4E231D",
"%  c #552414",
"&  c #5A2514",
"*  c #572916",
"=  c #5C2916",
"-  c #55251B",
";  c #5A261A",
":  c #552A1D",
">  c #5B2B1C",
",  c #632A0F",
"<  c #602714",
"1  c #642B14",
"2  c #6C2D14",
"3  c #622D1B",
"4  c #682F1B",
"5  c #6A3217",
"6  c #64331C",
"7  c #6A331B",
"8  c #743314",
"9  c #7A3516",
"0  c #73351C",
"q  c #75391D",
"w  c #7C3D1E",
"e  c #4D2622",
"r  c #4E2B24",
"t  c #4E2A29",
"y  c #522722",
"u  c #5D2623",
"i  c #542B23",
"p  c #5B2C22",
"a  c #522B2B",
"s  c #5C2E29",
"d  c #5C3224",
"f  c #56302D",
"g  c #5C342C",
"h  c #5E392D",
"j  c #5B3432",
"k  c #602521",
"l  c #602F22",
"z  c #643425",
"x  c #6A3525",
"c  c #663925",
"v  c #6B3A25",
"b  c #63352B",
"n  c #6A3629",
"m  c #65392B",
"M  c #6B3B2D",
"N  c #733B23",
"B  c #7C3D23",
"V  c #723D2C",
"C  c #7A3F2C",
"Z  c #633631",
"A  c #6C3631",
"S  c #663A31",
"D  c #6B3D33",
"F  c #6A3E39",
"G  c #703632",
"H  c #733D33",
"J  c #783F34",
"K  c #753E38",
"L  c #793F3B",
"P  c #6F402D",
"I  c #774125",
"U  c #7C4225",
"Y  c #75412C",
"T  c #7B442D",
"R  c #7D482D",
"E  c #6D4134",
"W  c #6E423A",
"Q  c #754133",
"!  c #764133",
"~  c #764231",
"^  c #734430",
"/  c #774433",
"(  c #724035",
")  c #734335",
"_  c #734137",
"`  c #734337",
"'  c #724236",
"]  c #704135",
"[  c #764234",
"{  c #774335",
"}  c #744237",
"|  c #754235",
" . c #724437",
".. c #754436",
"X. c #764537",
"o. c #754636",
"O. c #734334",
"+. c #784033",
"@. c #7A4233",
"#. c #7B4731",
"$. c #784335",
"%. c #794534",
"&. c #784436",
"*. c #794436",
"=. c #7A4736",
"-. c #794636",
";. c #7E4637",
":. c #7B4533",
">. c #774836",
",. c #754933",
"<. c #7D4836",
"1. c #7C4A35",
"2. c #714238",
"3. c #724339",
"4. c #72433B",
"5. c #70413A",
"6. c #754338",
"7. c #754539",
"8. c #74443A",
"9. c #71423C",
"0. c #73433A",
"q. c #7B4638",
"w. c #7C4739",
"e. c #79443B",
"r. c #754939",
"t. c #7E4939",
"y. c #7C4B3B",
"u. c #7E513C",
"i. c #6E4440",
"p. c #764541",
"a. c #7A4642",
"s. c #764944",
"d. c #7D4D42",
"f. c #7F5342",
"g. c #844324",
"h. c #824926",
"j. c #8F4B24",
"k. c #84462C",
"l. c #89472A",
"z. c #834A2D",
"x. c #8B4D2C",
"c. c #914C26",
"v. c #924F2C",
"b. c #8E5027",
"n. c #87512D",
"m. c #8D522D",
"M. c #92522C",
"N. c #98522E",
"B. c #94592F",
"V. c #814733",
"C. c #824B37",
"Z. c #814A36",
"A. c #844C34",
"S. c #8B4E33",
"D. c #82463C",
"F. c #834B3A",
"G. c #804839",
"H. c #824D3A",
"J. c #844D3B",
"K. c #894E3B",
"L. c #914F36",
"P. c #914E3B",
"I. c #865136",
"U. c #8C5235",
"Y. c #87533E",
"T. c #85513C",
"R. c #84523C",
"E. c #8A533F",
"W. c #8B543F",
"Q. c #8B533B",
"!. c #8E593D",
"~. c #915335",
"^. c #945A34",
"/. c #9B5B35",
"(. c #93553A",
"). c #98553A",
"_. c #94593C",
"`. c #9A5B3C",
"'. c #A15D3B",
"]. c #96603C",
"[. c #9B623E",
"{. c #844D41",
"}. c #8B4D40",
"|. c #844F4B",
" X c #8A4F4B",
".X c #845443",
"XX c #8B5442",
"oX c #865842",
"OX c #8D5943",
"+X c #83524A",
"@X c #8D5649",
"#X c #875848",
"$X c #8C594A",
"%X c #915441",
"&X c #905944",
"*X c #935C43",
"=X c #9B5D42",
"-X c #92574A",
";X c #935C4A",
":X c #985E48",
">X c #966245",
",X c #9C6144",
"<X c #96624C",
"1X c #9A634B",
"2X c #9C6351",
"3X c #A26444",
"4X c #AA6643",
"5X c #A36945",
"6X c #A26549",
"7X c #A5694C",
"8X c #AA6848",
/* pixels */
"r r i r r r r r r r t t t t t a e a a a e a a a a i i y y a a r a a a a a a a a t t e a f e # a a a t t r r r r i r r r r i r r ",
"h h h h g g g h g g j j j j j j y s Z Z g j Z Z b b g g b Z g $ j j j j j j j j j j g g Z i e h g g g g g g g j h g g g h h g h ",
"E E E M m m D E F F F F F F F F p m F W F F F F W F S D 3.3.m - F F F W W F F F F F S F E g p S S F F F F W E E E F D D E E F D ",
"P ^ o.>.o.....o.o.8.8.8.8.8.3.3.l M } } ) } } ) } } ] ] o.o.M p 3.4.3.W W 3.3.4.F 3.E ) ..b z ] ) ) ) ) 3.3.) ) ) H D H ) o...) ",
"Y #.H.Y.Y.Y.H.H.1.t.t.t.t.t.q.-.n H -.} ~ } } } ~ -.-.~ ~ ~ H n 6.) D M M D ) 6.D ) ] ~ o.v z -.-.-.$.} } H H H n n n V H $.$.$.",
"T C.W.&XOXXXE.E.C.C.G.G.G.G.;.-.n ~ -./ ~ / -.-.~ -.w.} ~ ~ ~ M } H M n n M H } V } ~ -.-.n v t.#.@.@.H V V V V n n n M V J @.H ",
"#.1.H.T.H.H.H.H.#.;.1.1.;.#.~ Y z M -.o.} o.-.o.} o.q.o.-.o.V z H H D D D D ] ] M ) } o.o.n c 1.@.~ ~ Y H V V V V M V V H H } H ",
"Y Y Y Y V V V ~ Y ~ ~ ~ ~ Y V v * z ] o.o.o.) D ) ) ) ) 8.8.m - ) 3.3.8.8.) ) ] M ) ] ] ] z d ] $.~ } } } } } } 6.} } } e.e.6.6.",
"M ] ] M M M D ] M M M M M M M M > z m E E E D D E D F F F S b s S W F S F D m F m D E E m z m M M M M D D D D M S F 8.F Z F 4.b ",
"- > p p p p p > > > > > > > > > @ - : > : : : : : - y i i i y $ $ d p : p : : d - : p : * % * > * * > > > > > p p - s s y s b y ",
"b b m m S S b - b b b b b b b b c m m m c z b b m b m S S S S b - b S b m m b M m m m m b c z c z z z m m m m m M > s S S Z S Z ",
"+X+X+Xd.d.{.6.z +X.X.X.X.X.X#X#XoXoXoXoXR.R..X.X.X.X+X+X+X+X+X+Xp 8.+X.X#X#X.X.X.XoXR..XoXOXoXY.oXoXoXoXoXoX.X.X.Xv M +X+Xa.d.+X",
"$X@X{.w.t.{.-.x @XOX$X;X<X<X<X1X>X>X>X>X!.W.XXOX#.#.w.t.F.H.{.{.& T XXOX1X1X&XXXOXW.Q.!.>X1X,X>X>X>X>X>X*X*XOXOXXXx n .X.Xq.F.@X",
"XXXXG.V @.J.V.x XX!.*X*X=X=X>X,X,X[.[._.U.U.S.U.x N C T @.V.C.J.  B S.(.,X6X_.S.S.x.x.~.`.,X3X,X,X[.]._._._.!.!.Q.5 7 C.C.C :.E.",
"K.%XK.C k.K.S.B (.(.(.(._._.`.`./././.^.M.m.x.x.l.l.S.S.S.S.(.(.2 l.~.~.3X8X`.v.v.v.M.~./././././.^.^.B.B.~.~.^.~.q q S.k.B V.(.",
"K.%XK.T T S.k.0 S.U.U.U.U.U.U.U.x.b.M.M.M.x.M.~.~.~.~.~.S.S.S.L.9 c.v.j.'.4X/.c.N.M.M.M.c.c.j.j.M.b.b.x.b.b.M.~.~.w B l.g.B k.(.",
"XX&XQ.T T Q.C.N E.K.K.Q.Q.Q.Q.A.(.U.x.x.U.~.U.U.S.S.S.~.(.U.U.(.8 g.M.x.~.'.'.v.v.M.M.M.v.v.v.v.v.U.U.~.U.U.S.S.S.B g.S.l.l.S.(.",
"E.XXK.@.V.Q.J.N E.XXXXE.C.:.:.C.A.A.S.U.U.U.S.z.A.z.z.k.z.A.U.U.8 l.~.~.~.`.).x.~.~.~.~.~.~.~.~.U.U.U.~.U.U.U.U.(.B B S.S.l.S.~.",
"K.XXG.@.G.K.@.3 J.XX@XJ.V N V V.T R A.A.Q.U.V.R k.z.T N N z.S.A.1 R Q.Q.U._.Q.A.U.U.U.U.U.U.U.U.U.U.Q.U.Q.U.Q.U.!.q N A.A.T z.A.",
"@X@XXXJ.K.XXV = K.XX&XXX;.@.G.XXC.I.Q.OX*XOXW.T.A.W.T.T T W.*XW.= Y XXOXXXOX&XXXXXXXXXXXXXXXXXW.W.W.W.W.W.W.W.W.*Xv v W.W.1.C.W.",
"XXXX.XH..X.X~ 3 .X.X.XH.H.H..XXXH.T.Y.W.W.W.W.XXH.W.Y.C.C.XXOXY.> ] .X.X.X.X.X.X.X.X.Xf..X.X.X.XR.R.R.R.R.R.R.R.oXv v R.oX1.u.Y.",
"n n n n n V z ; V n x x n n n n n c n c x c v M n c v c v c c n % d S m b b b b m m m m m m m m c c c c c c c c v % * v v c v v ",
"; * ; * > 3 3 * > ; * * > > ; ; > > > > * * > > l > * d > * % > : p p i : : i i i i i i i i i i > > > > > > > > > % * > > > > * ",
"M M M n n n V M n n n M V V V M v M D M b z v M 8.b b E D d z D D D D m m D F F S S S S m m S S M M M M M M M M M v D M b v D z ",
"} ) ) ) ) } 6.o.) ] ) } 6.o.q.e. . . . . . .3. .)  .) E ) z z ..o.) ) ) ) o.) ) ) ) ) ) ) ) ) ) H H H } 6.} e.e.6.6.6.6.6.6.6.6.",
") ) H D D D D D H D H ] ) ) 6.8.3.W W W  . . .3.D F m D  .m b ..q.=.t.d.H.t.t.q.t.=.q.o.~ ] V M H H H H L L 6.e.6.6.6.6.L L L L ",
"3.) H D S M M m F D F F H E 3.3.W W W W  . .3.3.F S b D 8.W S 8.o.H.XXXXXXH.F.t.t.-.-.~ V n n n A G A G G H K K L L L L L L L L ",
" .3.) F D S S S E E E E E ) 3.3.8.8.8.8.8.8. . .E F S F 8.F S 8.) t..XXX{.t.t.t.} ~ ~ H V M n M D D D D H H H H e.e.e.4.e.e.e.e.",
"8. .W W W W W W W W W W W W 3. .8. . .4.3.3.3.3.3.4.3.3.4.m b  .F 8.t.y.6.H 6.q.6.6.6.6.6.6.6.6.3.3.3.3.4.4.4.4.3.3.3.3.4.4.4.3.",
"F F F F F F E W F F F F F F F F F F F F F F F F F 3.F F F s p F F F W F S S F 3.F F F F F F F F F F F F F F F F F F F F F F F F ",
"g g g g g h b b b h g g g g h b b b b b b b b b b b z b m p > S b b h g g g h b g g g g g g g g g d d d d d d d d d d h h h h h ",
"> > > - - > > > > p > > - > p p > > > > > > > > > > % > z > - z p i p i p p p > : : > p p p p p : : : : : : : i i i : : : : * * ",
"U.U.S.A.A.A.J.J.C.@X@XK.& ;.@X{.K.E.XXK.K.K.XXY.K.E.K.J.K.XX{.G.XXXXJ.1.W.E.H.E.E.J.A.A.K.K.K.A.A.A.C.G.XX@X6.u |.|.+X+XXXXXK.K.",
"~.~.).`.=X=X=X=XU.*X&XJ.& @.}.@.V.Q.!.!.E.Q.E.A.J.E.XXQ.K.E.XX!.A.U.A.A.Q.U.S.U.U.U.~.~.`.`.`.`.3X=X=X%X:X-XL k  X{.D.D.}.%X(.P.",
"~.).[.6X7X7X6X,X*X:X%XJ.< @.J.C T A.Q.Q.Q.U.A.k.U._.,X_.U.U.Q.(.A.*X*X!._._.(.=XU.U.~._.=X6X6X6X6X3X=X_.*X%XJ ; XXD.C C A.(._.~.",
"~.~.`.,X,X=X_.(.(.(.Q.J.1 C.E.T I k.U.U.U.U.z.R U.,X7X,X_.U.U.U.Q.=X=X_._.Q._.6XS.S.U.(.`.,X3X3X/.^.~.U.Q.!.T < XXC.C I A.~.(.~.",
"~.~.~.~.~.U.U.U.!.U.A.J.4 C.E.:.U x.m.m.m.m.m.x.x._.5X5X`.^.m.z.U.*XQ.z.R R A.=XU.U.U.U.~.(.~.~.M.B.m.m.(._.V.7 T.A.V.z.x.m.~.~.",
"~.U.U.U.U.U.U.Q.(.Q.J.Q.7 C.E.T z.m.^.U.m.~.^.U.h.m.^.].[.[.^.m.U.!.A.I N N R (.Q.U.U.U.U.U.U.m.m.B.m.m.U.!.z.5 A.A.I.I.m.m.m.m.",
"U.U.U.U.U.U.Q.Q.!.Q.Q.W.6 1.T.V.z.m.~.U.U.~.~.~.x.x.x.U.[.5X,XU.Q.!.C.Y I I R Q.!.Q.U.U.U.U.U.U.m.m.m.n.U.U.R 7 T.I.A.A.U.U.U.m.",
"U.U.U.U.U.U.U.I.Q.T.T.XX7 1.Y.C.R z.U.U.U.U.U.U.(.U.z.A.=X7X6X_.Q.OXC.Y T T T U.Q.U.U.U.Q.(.Q.U.U.U.U.U.Q.!.1.v W.C.#.1.Q.!.Q.U.",
"U.U.Q.Q.!.!.W.W.C.Y.W.1.V 1.Y.Y J.J.K.K.E.Q.Q.Q.Q.Q.K.C.J.XX*X*XY.R.T.I.R.T.T.Q.W.Q.Q.Q.U.U.U.U.U.U.Q.W.*XOX1.z y.1.t.Y.XXK.K.XX",
"E.E.E.E.E.E.E.E.W.OX$Xy.M 1.oXH.XX@XXX@X@X@X-X@XXX@XXXF.J.XXXXXXXXoXoXoXXXXXXXXXW.W.W.W.Q.Q.Q.Q.%XXXXXXX$XXXo.z $X.X.X$X-X@X@X-X",
";.;.;.-.-.-.-.-.V ] o.v > z ] ] H H H H J } J } w.{.{.q.e.q.w.} H Y Y Y Y Y Y V T T T T #.:.T :.@.@.H V ~ ] b - 8.F D H L H K H ",
"o % % % % % % % > > > > X * z p > u u u u u u u o ; ; ; ; ; - o > > > > > > ; > O O O O O O O O 3 > ; ; p z > % s p - - u u u u ",
"D D D D M M M M z > p b b v D b b b b b b z z z s m F H F H H D b b b b b b z z H H H V V V V V z x z z z M M b m b s p b A A A ",
"D D D D D D D D 3.s b 3.8.8. .D ....) ..)  .8. .- z M D D D D S 8.8.3.3.3.3.8.8.D D D M M M M M } -.} H E ....E ..E m b D 4.4.L ",
"a.a.a.a.a.a.a.a.4.s b 3.W D F m E E ) ......o...z D r.r.o...o...8.W F F F F 3.8.3.8.8.q.e.t.t.t.t.H.y.o.^ ^ ^ E r.P m z M 6.6.H ",
"K L L K 4.4.4.4.p.b Z 4.F m S D E E E E E ......z E r...E E E D W F S S S S F 3.3.3.8.y.d.{.+X.XR.oXoXu.1.1.y.r.f.y.E M ) d.d.3.",
"K 6.8.p.p.4.W F s.Z g +Xb S M S D D E E W  .E E m E r.r.E m S E M D  .z  .z D 8.E E ) r.d..Xd.y.oXR.y.u.u.y.u.f.r. .E F W s.s.8.",
"6.6.8.8.8.8.i.i.i.g g s.b D D D E E W E  . . . .p m W r.E E E  .D E 8.m o.z E ..r.8.8.y.d.f.d.y.y.>.,.^ ..r.r.r.E E S b S W 8.W ",
"} 6.) 3.3.W W 8.F h g 8.M ) H ] ....) .. .r.r.r.> z ) r. .E ....] E r.M r.M ..E M M v M M M M v / / Y M P ^ ..E E D m b M E  .E ",
"l z z z b b b h b d p b z n n n z z z z z c c c > > z v z z z z z d m z z z v d M M M v v v v v c c c 6 c v c z m z > > d v M z ",
"; * > > p > : : d p * % > > 3 = ; = ; > 3 > ; = * * ; = = ; ; * * * > > O > z * % * * * * % % * > ; % * 3 3 3 > 3 3 = & = 6 6 = ",
"Y Y / / o...) E E ..M > Y Y Y V Y Y Y T T T T T T Y C C C Y Y Y Y P ] / ; M 1.M o.1.t.y.=.=.=.=.V z 3 V #.Y V T T T Y N Y T I N ",
"*XOXXXY.R.R..X#Xu..Xy.6 Y.XX*X*X:X=X*X!.!.*X=X=X=X&X*X&X=X=X&XXX;XOXOXOX3 1.OXR.1.R.oXoX.Xu.H.H.@XV V @X2XXXE.>X=X=X*X*X*X,X_.U.",
"!.I.R Y Y Y 1.u./ 1.Y O C.Q.=X*X,X*XU.A.S.U._.,X,X=X=X,X,X,X_.Q.;XOXXX.X. V R.1.#.t.Y..XH.1.#.#.@XV V ;X2XE.Q.1X,X,X,X,X,X,X_.m.",
"Q.Q.A.T Y 1.1.,.y.R.Y = I.Q.*X,X6X_.U.U.U.(._.,X,X,X,X,X,X,X,X,XE.;X*XY.& T H.Y T 1.Y.XXY.1.#.Y XX@.:.XXXX*X:X*X1X=X`.,X6X3X/.m.",
"U.U.S.z.1.T.Y.R.Y.!.1.5 Q.Q.*X,X7X=X~.U.U.U.~.(.(.(.(.(.(.(.(.(.Q.OXOXT.1 1.Y.Y T 1.J.Y.J.1.T C XXV C J.Q.!.*XQ.(.U.U.~.)./.~.x.",
"U.U.U.A.Q.!.OXY.T.OXI.5 U.S.Q._.6X`.~.~.~.S.S.~.~.~.~.~.~.~.~.U.S.!.E.Q.3 A.Q.T T 1.J.Q.J.V.T T XXV V J.Q.Q.Q.U.S.S.U.~.~.~.M.M.",
"S.S.S.S.U.Q.T.C.I.W.A.5 U.A.U.(.`.~.S.~.~.~.~.~.~.~.~.~.~.~.~.U.S.E.Q.Q.7 Q.!.T V.A.Q.!.Q.A.V.:.XXY Y E.XXQ.U.A.S.S.~.U.x.x.~.~.",
"S.z.z.z.V.z.T Y T.OXI.5 Q.U.(.`.~.S.S.~.(.~.~.~.~.~.~.~.~.~.~.~.U.U.K.Q.7 A.U.T V.A.U.U.Q.A.C.C.W.v V W.OXW.A.T T k.l.l.l.l.x.~.",
"U.z.z.z.V.T Y Y R.W.T 1 U.U.(._.(.~.S.~.(.~.L.~.~.~.~.~.~.~.~.U.(.U.K.Q.4 V.Q.V.V.A.S.Q.S.A.A.A.R.c v Y.OXT.V.R N U k.k.l.x.~.).",
"(.S.A.S.S.C.1.C.T.J.C + S.S.U.~._.~.U.~.~.U.S.U.U.U.U.U.U.U.U.U.U.U.S.U.1 R U.S.A.A.U.U.S.A.A.A.Y.6 6 R.OXT.A.V.k.A.S.S.L.L.(.(.",
"(.S.S.Q.%XE.E.OXOXE.I + S.U.(.~._.U.S.~.~.U.U.~.~.~.~.~.(.~.(.~.U.U.A.S., U U.U.A.U.Q.Q.U.U.U.Q.!.c 6 y.OXQ.W.W.U.Q.U.U.L.L.S.S."
};
