/* XPM */
static char *result[] = {
/* columns rows colors chars-per-pixel */
"64 64 31 1 ",
"  c black",
". c #010000",
"X c #171301",
"o c #1A1502",
"O c #1B1602",
"+ c #453804",
"@ c #463904",
"# c #594805",
"$ c #937709",
"% c #947809",
"& c #947909",
"* c #997C09",
"= c #997D09",
"- c #A3840A",
"; c #AF8F0B",
": c #CFA90D",
"> c #D1AA0D",
", c #DAB20D",
"< c #E5BB0E",
"1 c #ECC00E",
"2 c #EDC00E",
"3 c #EFC20E",
"4 c #F0C30F",
"5 c #F1C40F",
"6 c #F2C40F",
"7 c #F2C50F",
"8 c #F3C50F",
"9 c #F3C60F",
"0 c #F4C60F",
"q c #F5C70F",
"w c None",
/* pixels */
"wwwwwwwwwwwwwwwwwwwwww55555555555555555555555wwwwwwwwwwwwwwwwwww",
"wwwwwwwwwwwwwwwwwwwwww55555555555555555555555wwwwwwwwwwwwwwwwwww",
"wwwwwwwwwwwwwwwwwwwwww55555555555555555555555wwwwwwwwwwwwwwwwwww",
"wwwwwwwwwwwwwwww55555555555555555555555555555555555wwwwwwwwwwwww",
"wwwwwwwwwwwwwwww55555555555555555555555555555555555wwwwwwwwwwwww",
"wwwwwwwwwwwwwwww55555555555555555555555555555555555wwwwwwwwwwwww",
"wwwwwwwwwwwww55555555555555555555555555555555555555555wwwwwwwwww",
"wwwwwwwwwwwww55555555555555555555555555555555555555555wwwwwwwwww",
"wwwwwwwwwwwww55555555555555555555555555555555555555555wwwwwwwwww",
"wwwwwwwwww55555555555555555555555555555555555555555555555wwwwwww",
"wwwwwwwwww555555555555555555555555555555555555555555555555wwwwww",
"wwwwwwwwww555555555555555555555555555555531111124555555555wwwwww",
"wwwwwww5555555555555555555555555555555550;@@@@+#,755555555555www",
"wwwwww5555555555555555555555555555555555q$     X>955555555555www",
"wwwwww5555555555555555555555555555555555q%     o>955555555555www",
"wwww555555555555555555555555555555555555q%     o>955555555555555",
"www5555555555555555555555555555555555555q%     o>955555555555555",
"www5555555555555555555555555555555555555q&  .. O>955555555555555",
"www55555555555555555555555555555555555558:====*-<755555555555555",
"www555555555555555555555555555555555555558qqqqqq6555555555555555",
"www5555555555555555555555555555555555555555555555555555555555555",
"5555555555555555555555555555555555555555555555555555555555555555",
"5555555555555555555555555555555555555555555555555555555555555555",
"5555555555555555555555555555555555555555555555555555555555555555",
"5555555555555555555555555555555555555555555555555555555555wwwwww",
"5555555555555555555555555555555555555555555555555555555555wwwwww",
"5555555555555555555555555555555555555555555555555555555555wwwwww",
"5555555555555555555555555555555555555555555555555wwwwwwwwwwwwwww",
"555555555555555555555555555555555555555555555555wwwwwwwwwwwwwwww",
"555555555555555555555555555555555555555555555555wwwwwwwwwwwwwwww",
"55555555555555555555555555555555555555555555555wwwwwwwwwwwwwwwww",
"555555555555555555555555555555555555555555555wwwwwwwwwwwwwwwwwww",
"555555555555555555555555555555555555555555555wwwwwwwwwwwwwwwwwww",
"555555555555555555555555555555555555555555555wwwwwwwwwwwwwwwwwww",
"555555555555555555555555555555555555555555555555wwwwwwwwwwwwwwww",
"555555555555555555555555555555555555555555555555wwwwwwwwwwwwwwww",
"555555555555555555555555555555555555555555555555wwwwwwwwwwwwwwww",
"5555555555555555555555555555555555555555555555555555555555wwwwww",
"5555555555555555555555555555555555555555555555555555555555wwwwww",
"5555555555555555555555555555555555555555555555555555555555wwwwww",
"5555555555555555555555555555555555555555555555555555555555555555",
"5555555555555555555555555555555555555555555555555555555555555555",
"5555555555555555555555555555555555555555555555555555555555555555",
"www5555555555555555555555555555555555555555555555555555555555555",
"www5555555555555555555555555555555555555555555555555555555555555",
"www5555555555555555555555555555555555555555555555555555555555555",
"www5555555555555555555555555555555555555555555555555555555555555",
"www5555555555555555555555555555555555555555555555555555555555555",
"www5555555555555555555555555555555555555555555555555555555555555",
"wwwwww5555555555555555555555555555555555555555555555555555555www",
"wwwwww5555555555555555555555555555555555555555555555555555555www",
"wwwwwww555555555555555555555555555555555555555555555555555555www",
"wwwwwwwwww555555555555555555555555555555555555555555555555wwwwww",
"wwwwwwwwww555555555555555555555555555555555555555555555555wwwwww",
"wwwwwwwwww55555555555555555555555555555555555555555555555wwwwwww",
"wwwwwwwwwwwww55555555555555555555555555555555555555555wwwwwwwwww",
"wwwwwwwwwwwww55555555555555555555555555555555555555555wwwwwwwwww",
"wwwwwwwwwwwww55555555555555555555555555555555555555555wwwwwwwwww",
"wwwwwwwwwwwwwwww55555555555555555555555555555555555wwwwwwwwwwwww",
"wwwwwwwwwwwwwwww55555555555555555555555555555555555wwwwwwwwwwwww",
"wwwwwwwwwwwwwwww55555555555555555555555555555555555wwwwwwwwwwwww",
"wwwwwwwwwwwwwwwwwwwwww55555555555555555555555wwwwwwwwwwwwwwwwwww",
"wwwwwwwwwwwwwwwwwwwwww55555555555555555555555wwwwwwwwwwwwwwwwwww",
"wwwwwwwwwwwwwwwwwwwwww55555555555555555555555wwwwwwwwwwwwwwwwwww"
};
