/* XPM */
static char *a5c1bb5d6a2e497e9101bd20954ccd43zAMwvOJuDDEGFNCc[] = {
/* columns rows colors chars-per-pixel */
"64 64 146 2 ",
"   c #040E17",
".  c #050F19",
"X  c #061117",
"o  c #06121B",
"O  c #09151E",
"+  c #061521",
"@  c #091621",
"#  c #051827",
"$  c #0A1924",
"%  c #0B1D2B",
"&  c #111F2F",
"*  c #0C1E30",
"=  c #0D212E",
"-  c #11212E",
";  c #0D2434",
":  c #0D263A",
">  c #0F293D",
",  c #122434",
"<  c #142837",
"1  c #122639",
"2  c #112A3D",
"3  c #192C3D",
"4  c #0F2B41",
"5  c #122D41",
"6  c #1A2E41",
"7  c #163145",
"8  c #1A3246",
"9  c #15334A",
"0  c #1C364B",
"q  c #1E394D",
"w  c #163650",
"e  c #1B3750",
"r  c #1E3A51",
"t  c #20364B",
"y  c #203A4F",
"u  c #223F54",
"i  c #253C54",
"p  c #243D54",
"a  c #243F55",
"s  c #243F56",
"d  c #253F56",
"f  c #213B51",
"g  c #233F59",
"h  c #254056",
"j  c #2A4153",
"k  c #244158",
"l  c #264058",
"z  c #25425B",
"x  c #2A465B",
"c  c #2A445C",
"v  c #2A465D",
"b  c #2A465F",
"n  c #29445D",
"m  c #2C485F",
"M  c #264661",
"N  c #2A4661",
"B  c #2D4963",
"V  c #2D4B63",
"C  c #2E4B64",
"Z  c #2C4A63",
"A  c #2D4D68",
"S  c #2F4D69",
"D  c #2C4E69",
"F  c #2D4E69",
"G  c #2D4F6A",
"H  c #2E4E69",
"J  c #314B60",
"K  c #304C63",
"L  c #304B64",
"P  c #304C68",
"I  c #314C68",
"U  c #314C69",
"Y  c #304D69",
"T  c #324D69",
"R  c #304E6A",
"E  c #304E69",
"W  c #2F5066",
"Q  c #2F516B",
"!  c #315168",
"~  c #31506A",
"^  c #32516B",
"/  c #35526A",
"(  c #31516C",
")  c #31516D",
"_  c #32516C",
"`  c #33536D",
"'  c #32526E",
"]  c #33536E",
"[  c #34526E",
"{  c #36546F",
"}  c #33526D",
"|  c #38516A",
" . c #39586E",
".. c #355571",
"X. c #355571",
"o. c #385770",
"O. c #385672",
"+. c #375974",
"@. c #385877",
"#. c #3A5C76",
"$. c #3A5A76",
"%. c #375D78",
"&. c #3A5D7B",
"*. c #3B5E7A",
"=. c #3B5E7B",
"-. c #3B5F7B",
";. c #3D5E7B",
":. c #3D5F7B",
">. c #3E5E7B",
",. c #3A5E7C",
"<. c #3A5F7C",
"1. c #3B5F7C",
"2. c #3B5E7D",
"3. c #3B5F7D",
"4. c #3A5E7E",
"5. c #3A5F7E",
"6. c #3E5D7C",
"7. c #3C5E7C",
"8. c #3C5F7C",
"9. c #3E5F7D",
"0. c #3D5F7E",
"q. c #3C5D7A",
"w. c #3F607B",
"e. c #3D607C",
"r. c #3E607D",
"t. c #3E617D",
"y. c #3D617E",
"u. c #3D607F",
"i. c #3E607E",
"p. c #3E617F",
"a. c #3D627F",
"s. c #3E627F",
"d. c #3D617E",
"f. c #415E7E",
"g. c #40607A",
"h. c #40627E",
"j. c #3B5F80",
"k. c #3D6081",
"l. c #3D6281",
"z. c #3F6281",
"x. c #3E6181",
"c. c #416383",
"v. c #416382",
"b. c #486783",
"n. c #456885",
"m. c #426788",
/* pixels */
"8 d f c R R R R G G G G R R G G G G R x f p p d p p z < o : 5 2 > 2 2 7 f y y y y y y y y 8 8 f y y f y y y y y y y y y y y y y ",
"J c.9.9.9.9.9.=.1.1.1.=.1.1.1.1.=.=.1.>.w.t.t.z.t.t.m.d . : > > > > > 7 f y y y y y y y y f y y y y y y y y y y y y y y y y y y ",
": w >.9.>.t...f f z g.^ f d d f { t.t.R r #.o.r ` =.t.y o 2 4 > > > > > 2 q f y y y y y y y y y y y y y y y y y y y y y y y y y ",
"; 5 C R ^ ` V q q f / c q y y q V [ ` c 0 ^ K 0 ` 1.z.y o ; : 2 2 2 2 5 5 q y y y y y y y y y y y y y y y y y y y y y y y y y y ",
"; 5 : 7 f q q f y y q q y y y y q q q q f q q q ` 1.z.f o O $ 5 2 2 > 7 f y y y y y y y y f f f f f y y y y y y y y y y y y y y ",
", 5 > 5 5 q f y y y y y f f f f y y y y y y f q ` j.t.y o ; : 2 2 5 8 q y y y y y y f f f 7 5 5 5 7 y f f f f f y y y y y y y y ",
"; 1 > > > q f y y y y q q q q 0 q y y y y y y q G $.t.y . 1 5 > > 5 q y y y y y y q 0 q q 2 > > > 5 0 q q q 0 0 q y y y y y y y ",
"O $ 2 > > q f f f f f 8 > > > > 8 f f f f f f f y s t.y . 2 5 > > > > 7 f f f f f q > > > > 2 4 > > > > > > > > 8 f f f f f f f ",
"O @ > > > 7 7 7 7 7 7 5 > > > > 5 7 7 7 7 7 7 7 7 8 z.f o % ; 2 > > > 5 7 7 7 7 7 7 > > > > : % : > > > > > > > 5 7 7 7 7 7 7 7 ",
"O @ > > > > > > > > > > > > > > > > > > > > > > : 5 9.y o O $ 2 > > > > > > > > > > > > > > ; o ; 2 > > > > > > > > > > > > > > ",
"O $ 2 5 2 $ @ @ @ $ 5 5 5 5 5 4 5 > @ @ @ @ $ @ ; 5 9 ; O O % 5 5 5 5 ; @ $ @ @ 1 5 5 ; + @ @ O @ @ @ ; 5 4 5 5 5 : $ @ @ : 5 5 ",
"O @ ; ; ; @ @ @ O @ ; ; ; ; ; ; ; ; O O O O O O * ; ; % O @ $ ; ; ; ; % O O @ O % ; ; % O @ O @ O O O % ; ; ; ; ; ; @ O O ; ; ; ",
"o o o   . O O O O O o o o X X X o o @ O o o o o o o o o O o o o o o o o o O O O o   o o o o o o o o O O O O o o o o o o o   X o ",
"y C N N m 8 6 6 6 6 6 f J N N V t 3 o 3 C m m V V c 6 3 3 c C N V m m V m 0 < X y R V V V V V V V c 5 6 6 3 t L V V V V C C C N ",
"c =.9.t.h.N z z s s s G z.t.t.c.G f o t e.1.t.t.z.>.z z z =.t.t.t.t.t.z.h.Z 0   x k.t.t.t.t.t.t.z.>.z z z g C c.t.t.z.1.$.$.=.t.",
"; 9 >.>.$.=.#.1.z r $.>.>.9.>.$.1.{ O % 4 $.c.>.9.>.=.=.=.=.=.>.>.>.9.>.=.t.V o ; 9 w.t.9.9.9.9.=.$.=.=.=.=.=.>.=.=.t.C 0 0 x h.",
"; 5 g R 9.=.=.1.` G 9.X.N V R >.9.{ O % 4 g N C C G =.=.=.>.$.V V C N { >.z.V o ; 5 k N C C C V o.>.=.=.=.=.=.>.>.$.C z y y d C ",
"; 5 : g 9.$.#.=.>.>.9.C 8 8 z 9.9.{ O % 4 : 2 q 8 f $.>.=.9.` 0 q q 8 N >.t.V o ; 4 : 5 q q q 8 ^ 9.$.=.=.=.=.=.=.O.r q f f q 0 ",
"; 5 > 8 z f c t.1.=.c.C q 0 n 9.9...@ % 5 > 5 f y f s G h.b f y f f q C >.t.V o ; 5 5 5 5 q f f f z 9.t.z.b d s s s f f y y f r ",
"= ; > 5 0 0 h [ ` ^ { N 0 0 n >.=.{ @ $ ; : 5 0 q f 0 c / s q y y f q V 9.t.N o % ; 2 > > 0 y y q f / [ [ f q y y q y y y y y y ",
"O + 2 > > 0 y q q q q q f 0 z >.t...@ O O 1 5 > 8 f y y q f y y y f q C 9.t.V o O @ 5 5 2 q f y f y t 0 q y y y y y y y y y y y ",
"O $ > > > 0 f y y y f y q R ..>.G f @ + @ $ % > 8 f y y f y y y y f 0 V >.t.V o O @ $ ; 5 5 7 y f f f q f f y y y y y y y y y y ",
"O @ : > > 0 f y y y y y f $.9.>.b 7 O @ O O % 5 8 f y y y y y y y f s G >.t.N o O @ O % 5 > 5 f y y y q y y y y y y y y y y y y ",
"O O o % 5 0 f y y y y y f +.=.>.m 7 @ @ @ : 7 f y y y y y y y y 0 f #.=.=.c.V o O @ > > > > 5 f y y y y y y y y y y y y y y y y ",
"O @ % ; 2 0 f y y y y y y O.>.9.N 7 O @ @ : 5 7 0 y y y y y y q b G #.=.>.` y o O @ : > > 7 8 y y y y y y y y y y y y y y y y y ",
"O @ 2 5 2 0 f y y y y y f o.>.9.N 8 @ @ @ : > > 8 f y y y y y q ] h.=.1.=.s 3 O @ @ : > > q f y y y y y y y y y y y y y y y y y ",
"o @ > > > 0 f y y y y y f f N t.=.^ @ @ @ ; 7 y q y y f f 5 5 q ` 9.9.R q f 6 O @ @ : 7 q y y f y y f 8 2 q f y y y y y y y y f ",
"$ % > 5 5 q f y y y y y f q h ` #.{ @ @ @ ; 7 f y y y q 8 5 7 q ` 9.9.` z d 6 O @ @ : 7 0 q y y y y f 8 5 8 0 y y y y y y y q 8 ",
"; 5 > 7 f q y y y y y y y y f 0 [ o.@ @ + ; 5 f r q p 7 : q f q ` 9.=.9.9.z 5 O O @ > 2 2 q f y y y y y y : 5 f y y y y y f 8 > ",
"; 2 > 7 f y y y y y y y y y y 0 [ o.@ $ ; : 5 0 C ^ % 1 0 q y y h N >.9.=.O.h o O @ > > 2 q f y y y y y q R N 5 0 f f y y f 8 > ",
"; : > 7 f y y y y y y y y y f s { ..@ % 2 > 7 s G W @ < f y y y 0 s o.$.=.z.V o O @ > > > 0 y y y y y y q +.R > 8 q q q q q 8 2 ",
"O $ : 7 f y y y y y y y f 0 z 9.e.{ @ ; 5 : e v.2 + y y y y y y y f r C >.t.N o O @ 4 2 > q f y f f f f y q q f 5 : : 7 f 5 5 q ",
"O @ > 7 f y y y y y y y y N [ >.t...@ % ; : e v.3 O q r y y y y y y 0 V >.e.N o O @ % ; > 7 8 f 8 7 7 0 y q y r k b M 0 1 7 8 y ",
"O @ > 7 f y y y y y y y f $.t.#.1.{ @ O O ; r h.3 @ q y y y y y y y q C >.t.m O @ @ o % 5 > 5 f 5 > > 7 f y y 0 [ f.c.t . 8 f q ",
"O @ > 7 f y y y y f q C 1.$.=.>.N 8 @ O O @ @ % 3 0 2 2 2 q f y y d $.=.>.M 7 O @ @ O % 5 2 2 5 2 > > 2 5 q f f 8 5 9 ; O 2 5 5 ",
"O @ > 5 0 q y y y y q c X.$.>.>.C f @ O O $ % @ 8 f 5 5 5 8 0 q y d =.>.q.k 3 O O O O % 5 2 > > > > > > > 7 8 8 5 : ; % O = ; 2 ",
"O @ > > > q f y y y f y q +.f.$.t.o.@ O O : 2 > 0 f f f f 2 5 f y d >.>.$.k 3 O O O O * 5 2 > > > > 2 5 5 > > > 5 : + O @ o $ 5 ",
"O @ > > 2 5 7 f f q 5 5 7 k G t.z.{ @ O + : > > 5 7 y f y 5 5 5 0 f z Q t.+.j o @ O O $ % 1 5 2 4 > % % % % % % % $ @ O O O $ 5 ",
"O @ > > 2 > 5 q q 0 > > > 9 g +.1...@ O @ ; 1 2 2 2 0 q q 5 2 > 7 q 7 b ..t.J o @ O O O O ; : : 1 ; + O O O O O O o O O O O $ 2 ",
"O @ > 5 5 2 2 5 5 5 5 5 5 5 5 : [ #.@ O @ @ % 5 2 2 2 2 2 5 5 5 2 2 5 2 5 =.L o @ O O O @ @ + @ O O O O @ @ @ O O O O O O O O @ ",
"O + % % % > 1 % * % % % * * ; 2 s h @ O O O $ ; : 2 > > > ; % % ; 2 > 2 5 k 0 o O O O O O O O O O O O O O O O O O O O O O O O O ",
"@ @ O O O 1 ; O O O O O O O $ 2 : ; @ O @ @ @ O ; 2 1 1 1 $ O O , 2 : 2 2 : ; O @ $ @ @ @ @ @ @ O @ O @ @ O O O O O O O O O O @ ",
"o o o o o O O o o o o o O O o + + + o o o o o O + $ + + + o o o o + + @ @ @ @   j / 1 : : 1 ; O O O O O o O O O O O O O O O O O ",
", 3 3 3 3 3 3 3 3 3 6 < & - , 3 3 3 3 3 3 3 3 , - - 3 3 3 3 3 3 3 3 , - - & , % L >.4 5 7 5 : % % % % % , @ O O $ % % $ O @ @ % ",
"^ n.t.t.t.z.t.t.t.t.v.R 0 0 c h.t.t.t.t.t.h.{ r r d t.t.t.t.t.t.t.>.r f f s s r ..$.: 5 f 5 > 4 4 > > 8 d $ o o ; 5 5 ; o O $ 5 ",
"- 8 >.>.1.=.1.=.=.=.>.+.` ` ..=.=.=.=.=.9.=.+.` ` [ =.=.=.=.>.#.#.=.` X.[ r q 0 ` =.^ b 0 0 8 8 8 8 8 0 y 8 6 8 7 8 2 2 3 6 8 8 ",
". $ ` ..+.$.+.+.$.=.#.=.9.9.>.=.+.+.+.+.+.#.=.9.1.=.=.$.+.+.$.=.=.9.t.z.f.c f 0 ` >.#.V 0 f f f f f f f q f f f f r 5 7 q r f q ",
"@ @ O < f q y q X.c.9.9.9.=.=.h.N 0 f y r +.t.=.>.9.z.G 0 q c z.z.f.>.>.=.9.{ q [ #.0 0 r y y y y y y y y y y y q q y q q q q q ",
"O @ o < f q y q b C C C C =.$.V z q y y f N ^ 9.` V C z q q d G V L 9.9.=.t.R = L >.L z q y q y y y y y y y y y q y y y y y y y ",
"O @ o < i y y r q 0 0 q 0 +.{ 0 y y y y y 0 z h.z 0 q q f y y 0 8 f $.1.=.t.C   c t.h.G q f r f r f f f f f f f r f f f f f f f ",
"O O O @ $ 0 f y y f f f y s g f y y y y y y f d f y f y y y y f f f f R >.9.[ 8 ` >.=.$.$.f 0 q q q q q q q q 0 C $.+.+.+.f 0 q ",
"O O O O O 0 f y y y y y f y f y y y y y y y y y y y y y y y y y y y 0 V >.1.[ t ` 9.$.=.>.N c c c c c c c c c z ..9.>.>.=.N z c ",
"O O O O @ 8 f y y y y y y f y y y y y y y y y f y y y y y y y y y f q C 9.1.[ 0 ] t.t.c.c.z.z.z.z.z.z.z.z.c.c.c.c.c.z.t.z.c.c.c.",
"O O O O @ 8 f y y y y y y y y y y y y y y y y y y y y y y y y y y f q C 9.t.C % q h 1 < < d z z z z z z z 3 2 2 < 1 2 < 1 1 < < ",
"O O O O @ 8 f y y y y y y y y y y y y y y y y y y y y y y y y y y f q C 9.t.N   7 f % $ % q s f s s q q q % @ $ $ % o @ % % % % ",
"O O O O @ 8 f y y y y y y y y y y y y y y y y y y y y y y y y y y f q C 9.t.V . J b.>.>.>.>.>.>.>.$.r q f y t 8 |  .o t b.#.#.>.",
"O O O O @ 8 f q q y y y y y y y y y y y y y y y y y y y y y y y y f q V 9.t.V o 8 Z >.>.=.=.=.=.=.$.G z y y d C $...O 2 N +.1.=.",
"@ O O O @ 8 f q q y y y y y y y y y y y y y y y y y y y y y y y y y q C >.t.V o ; 5 $.=.=.=.=.=.=.=.t.C q y c t.9.X.O % > ] =.%.",
"; : O O @ 0 s q y y y y y y y y y y y y y y y y y y y y y y y y y s +.#.#.h.J o ; 5 5 0 s $.t.e.=.=.9.=.+.+.$.=.9.] O = 5 5 8 h ",
": 1 @ O O 2 8 q y y y y y y y y y y y y y y y y y y y y y y y y y s =.=.$...z o ; 5 > 7 q G ` ^ $.=.` +.9.1.1.=.9.X.@ % 5 : 2 8 ",
"5 : O O @ o % f y y y y y y y y y y y y y y y y y y y y y y y y y s $.>.9.g 3 o ; 5 > 7 y q q 0 { >.0 N t.>.9.=.>.X.@ % 4 > > > ",
"5 > ; % O ; ; % 8 s f f y y y y y y y y y y y y y y y y y y y y y s >.^ k d 6 o ; 4 > 5 5 q f q z z y d c z C >.>.X.+ @ % : > > ",
"2 > 5 ; @ 1 ; X 2 t 8 t f q y y y y q y y y y y y y y y y y y y y s >.G f s 6 o ; 4 > > > q f y q q y y q 0 z >.>.X.@ O O : > > ",
"; 2 > > 1 # O O O O X < f q r y y y q y y y y y y y y y y y y y y f #.>.>.z 6 o ; 4 > > > q f y y f y y f q b >.>.X.@ O @ : 2 > "
};
